<?xml version="1.0" encoding="utf-8"?>
<!-- Generator: Adobe Illustrator 24.0.1, SVG Export Plug-In . SVG Version: 6.00 Build 0)  -->
<svg version="1.1" id="Livello_1" xmlns="http://www.w3.org/2000/svg" xmlns:xlink="http://www.w3.org/1999/xlink" x="0px" y="0px"
	 viewBox="0 0 538.58 396.85" style="enable-background:new 0 0 538.58 396.85;" xml:space="preserve">
<style type="text/css">
	.st0{fill:#E30613;}
	.st1{fill:#878787;}
	.st2{fill:none;stroke:#000000;stroke-width:2;stroke-linecap:round;stroke-linejoin:round;stroke-miterlimit:10;}
</style>
<g>
	<path d="M281.59,161.68c-1.38,2.03-3.27,3.59-5.69,4.67c-2.42,1.08-5.23,1.62-8.43,1.62c-2.37,0-4.56-0.34-6.56-1
		c-2.01-0.67-3.8-1.67-5.39-2.98c-1.35-1.09-2.37-2.34-3.06-3.74c-0.69-1.4-1.04-2.89-1.04-4.49c0-1.62,0.42-3.15,1.26-4.6
		c0.84-1.45,2.06-2.77,3.69-3.97c1.53-1.11,3.23-1.94,5.1-2.51c1.87-0.57,3.88-0.85,6.04-0.85c3.24,0,6.08,0.56,8.54,1.69
		c2.45,1.13,4.3,2.72,5.54,4.79h-5.38c-1.02-1.04-2.26-1.81-3.74-2.33c-1.48-0.52-3.14-0.78-5.01-0.78c-1.49,0-2.91,0.21-4.25,0.62
		c-1.35,0.42-2.54,1.02-3.58,1.8c-1.08,0.82-1.93,1.77-2.54,2.86c-0.61,1.08-0.91,2.19-0.91,3.32c0,1.21,0.27,2.36,0.82,3.44
		c0.55,1.08,1.34,2.01,2.37,2.8c1.08,0.83,2.33,1.48,3.75,1.93c1.42,0.46,2.87,0.69,4.34,0.69c1.81,0,3.44-0.25,4.89-0.76
		c1.45-0.5,2.65-1.24,3.59-2.19H281.59z"/>
	<path d="M302.65,167.5h-16.4v-23.23h16.4v3.09h-11.82v6.94h11.82v3.03h-11.82v6.95h11.82V167.5z"/>
	<path d="M336.99,161.68c-1.38,2.03-3.27,3.59-5.69,4.67c-2.42,1.08-5.23,1.62-8.43,1.62c-2.37,0-4.56-0.33-6.56-1
		c-2.01-0.67-3.8-1.67-5.39-2.98c-1.35-1.09-2.37-2.34-3.06-3.74c-0.69-1.4-1.04-2.89-1.04-4.49c0-1.62,0.42-3.15,1.26-4.6
		c0.84-1.45,2.06-2.77,3.69-3.97c1.53-1.11,3.23-1.94,5.11-2.51c1.87-0.57,3.88-0.85,6.04-0.85c3.24,0,6.09,0.56,8.53,1.69
		c2.45,1.13,4.3,2.72,5.54,4.79h-5.38c-1.02-1.04-2.26-1.81-3.74-2.33c-1.48-0.52-3.14-0.78-5.01-0.78c-1.49,0-2.91,0.21-4.25,0.62
		c-1.35,0.42-2.54,1.02-3.58,1.8c-1.08,0.82-1.93,1.77-2.53,2.86c-0.61,1.08-0.91,2.19-0.91,3.32c0,1.21,0.28,2.36,0.82,3.44
		c0.55,1.08,1.34,2.01,2.37,2.8c1.08,0.83,2.33,1.48,3.75,1.93c1.42,0.46,2.86,0.69,4.34,0.69c1.81,0,3.44-0.25,4.89-0.76
		c1.45-0.5,2.65-1.24,3.59-2.19H336.99z"/>
	<path d="M346.23,167.5h-4.57v-23.23h4.57V167.5z"/>
	<path d="M393.19,161.68c-1.38,2.03-3.27,3.59-5.7,4.67c-2.42,1.08-5.23,1.62-8.43,1.62c-2.37,0-4.56-0.33-6.56-1
		c-2-0.67-3.8-1.67-5.39-2.98c-1.34-1.09-2.36-2.34-3.06-3.74c-0.69-1.4-1.04-2.89-1.04-4.49c0-1.62,0.42-3.15,1.25-4.6
		c0.84-1.45,2.07-2.77,3.69-3.97c1.54-1.11,3.24-1.94,5.11-2.51c1.87-0.57,3.88-0.85,6.04-0.85c3.24,0,6.08,0.56,8.53,1.69
		c2.45,1.13,4.3,2.72,5.54,4.79h-5.38c-1.02-1.04-2.26-1.81-3.73-2.33c-1.48-0.52-3.14-0.78-5.01-0.78c-1.49,0-2.91,0.21-4.25,0.62
		c-1.35,0.42-2.54,1.02-3.58,1.8c-1.08,0.82-1.93,1.77-2.54,2.86c-0.61,1.08-0.91,2.19-0.91,3.32c0,1.21,0.27,2.36,0.82,3.44
		c0.55,1.08,1.34,2.01,2.36,2.8c1.08,0.83,2.33,1.48,3.75,1.93c1.42,0.46,2.86,0.69,4.33,0.69c1.81,0,3.44-0.25,4.89-0.76
		c1.45-0.5,2.65-1.24,3.59-2.19H393.19z"/>
	<path d="M402.13,160.73l-3.55,6.77h-4.84l12.34-23.23h4.45l12.34,23.23h-5.01l-3.47-6.77H402.13z M412.74,157.47l-4.45-8.82
		l-4.53,8.82H412.74z"/>
	<path d="M429.18,167.5h-4.58v-23.23h9.11c3.78,0,6.68,0.65,8.67,1.93c1.99,1.29,2.99,3.15,2.99,5.58c0,1.89-0.83,3.47-2.5,4.75
		c-1.67,1.27-3.82,1.95-6.45,2.05l8.96,8.92h-5.72l-10.48-10.78V167.5z M429.18,156.33h2.35c3.16,0,5.52-0.38,7.07-1.13
		c1.55-0.75,2.32-1.9,2.32-3.45c0-1.5-0.67-2.6-2-3.3c-1.33-0.7-3.43-1.05-6.31-1.05h-3.42V156.33z"/>
	<path d="M454.28,167.5h-4.58v-23.23h4.71l15.51,17.58l-0.22-17.58h4.52v23.23h-4.38l-15.85-18.11L454.28,167.5z"/>
	<path d="M484.29,167.5h-4.57v-23.23h4.57V167.5z"/>
	<path class="st0" d="M281.59,205.36c-1.38,2.03-3.27,3.59-5.69,4.67c-2.42,1.08-5.23,1.62-8.43,1.62c-2.37,0-4.56-0.33-6.56-1.01
		c-2.01-0.67-3.8-1.66-5.39-2.98c-1.35-1.09-2.37-2.34-3.06-3.74c-0.69-1.4-1.04-2.9-1.04-4.49c0-1.62,0.42-3.15,1.26-4.6
		c0.84-1.45,2.06-2.77,3.69-3.96c1.53-1.11,3.23-1.94,5.1-2.51c1.87-0.57,3.88-0.85,6.04-0.85c3.24,0,6.08,0.57,8.54,1.69
		c2.45,1.13,4.3,2.72,5.54,4.78h-5.38c-1.02-1.03-2.26-1.81-3.74-2.33c-1.48-0.52-3.14-0.78-5.01-0.78c-1.49,0-2.91,0.21-4.25,0.62
		c-1.35,0.41-2.54,1.02-3.58,1.8c-1.08,0.82-1.93,1.77-2.54,2.85c-0.61,1.09-0.91,2.19-0.91,3.32c0,1.21,0.27,2.36,0.82,3.44
		c0.55,1.08,1.34,2.01,2.37,2.8c1.08,0.83,2.33,1.47,3.75,1.93c1.42,0.46,2.87,0.69,4.34,0.69c1.81,0,3.44-0.25,4.89-0.76
		c1.45-0.5,2.65-1.23,3.59-2.19H281.59z"/>
	<path class="st0" d="M302.65,211.19h-16.4v-23.23h16.4v3.1h-11.82v6.94h11.82v3.03h-11.82v6.95h11.82V211.19z"/>
	<path class="st0" d="M336.99,205.36c-1.38,2.03-3.27,3.59-5.69,4.67c-2.42,1.08-5.23,1.62-8.43,1.62c-2.37,0-4.56-0.33-6.56-1.01
		c-2.01-0.67-3.8-1.66-5.39-2.98c-1.35-1.09-2.37-2.34-3.06-3.74c-0.69-1.4-1.04-2.9-1.04-4.49c0-1.62,0.42-3.15,1.26-4.6
		c0.84-1.45,2.06-2.77,3.69-3.96c1.53-1.11,3.23-1.94,5.11-2.51c1.87-0.57,3.88-0.85,6.04-0.85c3.24,0,6.09,0.57,8.53,1.69
		c2.45,1.13,4.3,2.72,5.54,4.78h-5.38c-1.02-1.03-2.26-1.81-3.74-2.33c-1.48-0.52-3.14-0.78-5.01-0.78c-1.49,0-2.91,0.21-4.25,0.62
		c-1.35,0.41-2.54,1.02-3.58,1.8c-1.08,0.82-1.93,1.77-2.53,2.85c-0.61,1.09-0.91,2.19-0.91,3.32c0,1.21,0.28,2.36,0.82,3.44
		c0.55,1.08,1.34,2.01,2.37,2.8c1.08,0.83,2.33,1.47,3.75,1.93c1.42,0.46,2.86,0.69,4.34,0.69c1.81,0,3.44-0.25,4.89-0.76
		c1.45-0.5,2.65-1.23,3.59-2.19H336.99z"/>
	<path class="st0" d="M346.23,211.19h-4.57v-23.23h4.57V211.19z"/>
	<path class="st0" d="M393.19,205.36c-1.38,2.03-3.27,3.59-5.7,4.67c-2.42,1.08-5.23,1.62-8.43,1.62c-2.37,0-4.56-0.33-6.56-1.01
		c-2-0.67-3.8-1.66-5.39-2.98c-1.34-1.09-2.36-2.34-3.06-3.74c-0.69-1.4-1.04-2.9-1.04-4.49c0-1.62,0.42-3.15,1.25-4.6
		c0.84-1.45,2.07-2.77,3.69-3.96c1.54-1.11,3.24-1.94,5.11-2.51c1.87-0.57,3.88-0.85,6.04-0.85c3.24,0,6.08,0.57,8.53,1.69
		c2.45,1.13,4.3,2.72,5.54,4.78h-5.38c-1.02-1.03-2.26-1.81-3.73-2.33c-1.48-0.52-3.14-0.78-5.01-0.78c-1.49,0-2.91,0.21-4.25,0.62
		c-1.35,0.41-2.54,1.02-3.58,1.8c-1.08,0.82-1.93,1.77-2.54,2.85c-0.61,1.09-0.91,2.19-0.91,3.32c0,1.21,0.27,2.36,0.82,3.44
		c0.55,1.08,1.34,2.01,2.36,2.8c1.08,0.83,2.33,1.47,3.75,1.93c1.42,0.46,2.86,0.69,4.33,0.69c1.81,0,3.44-0.25,4.89-0.76
		c1.45-0.5,2.65-1.23,3.59-2.19H393.19z"/>
	<path class="st0" d="M402.13,204.42l-3.55,6.77h-4.84l12.34-23.23h4.45l12.34,23.23h-5.01l-3.47-6.77H402.13z M412.74,201.15
		l-4.45-8.82l-4.53,8.82H412.74z"/>
	<path class="st0" d="M429.18,211.19h-4.58v-23.23h9.11c3.78,0,6.68,0.64,8.67,1.93c1.99,1.29,2.99,3.15,2.99,5.58
		c0,1.89-0.83,3.47-2.5,4.74c-1.67,1.27-3.82,1.96-6.45,2.05l8.96,8.92h-5.72l-10.48-10.79V211.19z M429.18,200.02h2.35
		c3.16,0,5.52-0.38,7.07-1.13c1.55-0.75,2.32-1.9,2.32-3.44c0-1.5-0.67-2.6-2-3.3c-1.33-0.7-3.43-1.06-6.31-1.06h-3.42V200.02z"/>
	<path class="st0" d="M454.28,211.19h-4.58v-23.23h4.71l15.51,17.58l-0.22-17.58h4.52v23.23h-4.38l-15.85-18.11L454.28,211.19z"/>
	<path class="st0" d="M484.29,211.19h-4.57v-23.23h4.57V211.19z"/>
	<path class="st1" d="M281.59,249.05c-1.38,2.03-3.27,3.59-5.69,4.66c-2.42,1.08-5.23,1.62-8.43,1.62c-2.37,0-4.56-0.34-6.56-1.01
		c-2.01-0.67-3.8-1.66-5.39-2.98c-1.35-1.09-2.37-2.34-3.06-3.74c-0.69-1.4-1.04-2.89-1.04-4.49c0-1.62,0.42-3.15,1.26-4.6
		c0.84-1.45,2.06-2.77,3.69-3.96c1.53-1.11,3.23-1.94,5.1-2.51c1.87-0.57,3.88-0.85,6.04-0.85c3.24,0,6.08,0.57,8.54,1.69
		c2.45,1.13,4.3,2.72,5.54,4.78h-5.38c-1.02-1.03-2.26-1.81-3.74-2.33c-1.48-0.52-3.14-0.78-5.01-0.78c-1.49,0-2.91,0.21-4.25,0.62
		c-1.35,0.41-2.54,1.02-3.58,1.8c-1.08,0.82-1.93,1.77-2.54,2.85c-0.61,1.09-0.91,2.19-0.91,3.32c0,1.21,0.27,2.36,0.82,3.44
		c0.55,1.08,1.34,2.01,2.37,2.8c1.08,0.83,2.33,1.47,3.75,1.93c1.42,0.46,2.87,0.69,4.34,0.69c1.81,0,3.44-0.25,4.89-0.76
		c1.45-0.5,2.65-1.24,3.59-2.19H281.59z"/>
	<path class="st1" d="M302.65,254.87h-16.4v-23.23h16.4v3.1h-11.82v6.94h11.82v3.03h-11.82v6.95h11.82V254.87z"/>
	<path class="st1" d="M336.99,249.05c-1.38,2.03-3.27,3.59-5.69,4.66c-2.42,1.08-5.23,1.62-8.43,1.62c-2.37,0-4.56-0.34-6.56-1.01
		c-2.01-0.67-3.8-1.66-5.39-2.98c-1.35-1.09-2.37-2.34-3.06-3.74c-0.69-1.4-1.04-2.89-1.04-4.49c0-1.62,0.42-3.15,1.26-4.6
		c0.84-1.45,2.06-2.77,3.69-3.96c1.53-1.11,3.23-1.94,5.11-2.51c1.87-0.57,3.88-0.85,6.04-0.85c3.24,0,6.09,0.57,8.53,1.69
		c2.45,1.13,4.3,2.72,5.54,4.78h-5.38c-1.02-1.03-2.26-1.81-3.74-2.33c-1.48-0.52-3.14-0.78-5.01-0.78c-1.49,0-2.91,0.21-4.25,0.62
		c-1.35,0.41-2.54,1.02-3.58,1.8c-1.08,0.82-1.93,1.77-2.53,2.85c-0.61,1.09-0.91,2.19-0.91,3.32c0,1.21,0.28,2.36,0.82,3.44
		c0.55,1.08,1.34,2.01,2.37,2.8c1.08,0.83,2.33,1.47,3.75,1.93c1.42,0.46,2.86,0.69,4.34,0.69c1.81,0,3.44-0.25,4.89-0.76
		c1.45-0.5,2.65-1.24,3.59-2.19H336.99z"/>
	<path class="st1" d="M346.23,254.87h-4.57v-23.23h4.57V254.87z"/>
	<path class="st1" d="M393.19,249.05c-1.38,2.03-3.27,3.59-5.7,4.66c-2.42,1.08-5.23,1.62-8.43,1.62c-2.37,0-4.56-0.34-6.56-1.01
		c-2-0.67-3.8-1.66-5.39-2.98c-1.34-1.09-2.36-2.34-3.06-3.74c-0.69-1.4-1.04-2.89-1.04-4.49c0-1.62,0.42-3.15,1.25-4.6
		c0.84-1.45,2.07-2.77,3.69-3.96c1.54-1.11,3.24-1.94,5.11-2.51c1.87-0.57,3.88-0.85,6.04-0.85c3.24,0,6.08,0.57,8.53,1.69
		c2.45,1.13,4.3,2.72,5.54,4.78h-5.38c-1.02-1.03-2.26-1.81-3.73-2.33c-1.48-0.52-3.14-0.78-5.01-0.78c-1.49,0-2.91,0.21-4.25,0.62
		c-1.35,0.41-2.54,1.02-3.58,1.8c-1.08,0.82-1.93,1.77-2.54,2.85c-0.61,1.09-0.91,2.19-0.91,3.32c0,1.21,0.27,2.36,0.82,3.44
		c0.55,1.08,1.34,2.01,2.36,2.8c1.08,0.83,2.33,1.47,3.75,1.93c1.42,0.46,2.86,0.69,4.33,0.69c1.81,0,3.44-0.25,4.89-0.76
		c1.45-0.5,2.65-1.24,3.59-2.19H393.19z"/>
	<path class="st1" d="M402.13,248.11l-3.55,6.76h-4.84l12.34-23.23h4.45l12.34,23.23h-5.01l-3.47-6.76H402.13z M412.74,244.84
		l-4.45-8.82l-4.53,8.82H412.74z"/>
	<path class="st1" d="M429.18,254.87h-4.58v-23.23h9.11c3.78,0,6.68,0.64,8.67,1.93c1.99,1.29,2.99,3.15,2.99,5.58
		c0,1.89-0.83,3.48-2.5,4.75c-1.67,1.27-3.82,1.96-6.45,2.05l8.96,8.92h-5.72l-10.48-10.79V254.87z M429.18,243.7h2.35
		c3.16,0,5.52-0.38,7.07-1.13c1.55-0.75,2.32-1.9,2.32-3.45c0-1.5-0.67-2.6-2-3.3c-1.33-0.71-3.43-1.05-6.31-1.05h-3.42V243.7z"/>
	<path class="st1" d="M454.28,254.87h-4.58v-23.23h4.71l15.51,17.58l-0.22-17.58h4.52v23.23h-4.38l-15.85-18.11L454.28,254.87z"/>
	<path class="st1" d="M484.29,254.87h-4.57v-23.23h4.57V254.87z"/>
	<g>
		<path class="st0" d="M196.12,204.56c0.74,0.55,1.38,1.77,1.92,3.66l2.32,0.1v-22.41l-2.32,0.1c-0.61,1.82-1.32,3.02-2.12,3.6
			c-0.81,0.59-2.16,0.88-4.05,0.88h-43.08v-22.75c-0.12-0.07-0.21-0.13-0.34-0.21c-5.28-2.47-10.36-3.85-15.1-5.03
			c-0.58-0.14-1.17-0.25-1.75-0.38v72.96c4.19-1.05,8.37-2.42,12.36-4.58c1.99-1.07,3.52-2.18,4.83-3.01v-23.76h43.28
			C194.03,203.73,195.38,204.01,196.12,204.56z"/>
		<path class="st0" d="M162.16,152.54c1.95,0.86,4.26,1.42,4.92,1.66c0.25-0.2,1.55-1.23,2.07-1.73c0.89-0.86,0.8-0.91,1.98-0.91
			c0.77,0,1,0.59,1.7,0.98l0.94,0.94c1.1,0.6,0.82,0.13,1.16,1.34c0.34,1.21-0.7,1.21-1.32,2.3l-1.04,2.1h41.65
			c2.02,0,3.44,0.31,4.25,0.93c0.81,0.62,1.39,1.84,1.72,3.65h2.32v-22.5h-2.32c-0.47,1.81-1.15,3.1-2.02,3.85
			c-0.87,0.75-2.26,1.12-4.15,1.12h-67.56C149.59,147.36,158.97,151.16,162.16,152.54z"/>
		<path class="st0" d="M224.84,233.25c-0.67,1.89-1.4,3.12-2.17,3.7c-0.77,0.58-2.14,0.88-4.1,0.88h-40.76
			c-0.36,0.72-0.36,0.4-1.05,0.86l-1.06,0.11c-0.79,0.53-0.3,0.45-1.21,0.45c-0.85,0-0.02-0.01-0.77-0.48
			c-0.58-0.36-0.01,0.15-0.33-0.01c-0.39,0.25-2.94-1.25-3.69-0.72c-2.32,1.64-5.85,4.02-7.66,5.05
			c-3.65,2.12-13.67,6.32-17.44,7.88h74.17c1.95,0,3.32,0.29,4.09,0.87c0.78,0.59,1.43,1.82,1.97,3.7h2.22v-22.31H224.84z"/>
	</g>
	<path class="st2" d="M118.7,254.65c-18.8,0-34.38-5.31-46.31-15.77c-12.01-10.53-18.1-24.13-18.1-40.41
		c0-16.02,6.03-29.51,17.93-40.11c11.84-10.54,27.14-15.88,45.47-15.88c13.61,0,28.26,3.36,43.54,10c4.06,1.8,5.01,1.97,5.17,1.99
		c0.12,0,0.39-0.1,0.69-0.28c0.32-0.19,0.95-0.64,2.07-1.73l1.02-0.98l5.07,2.79l-14.96,26.02l-5.33-2.93l0.73-1.62
		c0.15-0.33,0.26-0.66,0.32-1c0.08-0.38,0.12-0.72,0.12-1.04c0-0.56-0.25-1.11-0.77-1.69c-0.4-0.45-1.67-1.56-5.68-3.98
		c-5.35-2.5-10.68-4.44-15.66-5.67c-4.95-1.22-9.97-1.85-14.91-1.85c-13.07,0-23.7,3.56-31.59,10.57
		c-7.83,6.96-11.79,16.23-11.79,27.55c0,11.31,4.01,20.53,11.93,27.39c8,6.93,18.73,10.44,31.87,10.44c8.87,0,17.51-2.23,25.69-6.64
		c11.16-6.02,11.73-8.7,11.73-9.17c0-0.16-0.02-0.44-0.14-0.88c-0.08-0.3-0.27-0.89-0.72-1.98l-0.54-1.29l4.46-3.84l19.6,23.49
		l-4.82,3.24l-1.05-0.65c-0.86-0.54-1.59-0.93-2.17-1.18c-0.41-0.18-0.7-0.25-0.89-0.28c-0.29,0.13-1.09,0.56-3.02,1.92
		c-2.25,1.59-4.19,2.85-5.92,3.84c-6.7,3.89-13.64,6.82-20.63,8.72C134.12,253.7,126.59,254.65,118.7,254.65z"/>
</g>
<g>
	<defs>
		<rect id="SVGID_1_" x="-162.46" y="-286.01" width="827.76" height="269.28"/>
	</defs>
	<clipPath id="SVGID_2_">
		<use xlink:href="#SVGID_1_"  style="overflow:visible;"/>
	</clipPath>
</g>
</svg>
